<?xml version="1.0" encoding="utf-8"?>
<!-- Svg Vector Icons : http://www.onlinewebfonts.com/icon -->
<!DOCTYPE svg PUBLIC "-//W3C//DTD SVG 1.1//EN" "http://www.w3.org/Graphics/SVG/1.1/DTD/svg11.dtd">
<svg version="1.1" xmlns="http://www.w3.org/2000/svg" xmlns:xlink="http://www.w3.org/1999/xlink" x="0px" y="0px" viewBox="0 0 256 256" enable-background="new 0 0 256 256" xml:space="preserve">
<metadata> Svg Vector Icons : http://www.onlinewebfonts.com/icon </metadata>
<g><g><g><path fill="#000000" d="M33.6,37.4c-2.9,0.7-5.2,2.2-7.4,4.7C22.9,46.1,23,41.7,23,111v62.1h-6.5H10l0.3,3.5c0.5,6.5,4.3,12.3,9.9,15.1l3.1,1.5l60.6,0.1l60.7,0.1l0.2,7.7c0.1,7.3,0.2,7.8,1.4,10.3c0.7,1.5,2.2,3.5,3.4,4.5c3.9,3.4,3.6,3.4,30,3c27.5-0.4,27-0.3,31-4.3c3.5-3.6,4.1-5.4,4.1-14.4v-6.8l9.1-0.2c8.8-0.1,9.2-0.2,11.6-1.4c6.2-3,10.6-10.3,10.6-17.5v-1.3h-6.4h-6.4V111c0-54-0.1-62.4-0.7-64.4c-0.9-3.1-4.1-6.6-7.5-8.3l-2.6-1.3L129,36.9C56.3,36.9,35.2,37,33.6,37.4z M130.8,42.6c1.2,1.6,1.2,3-0.1,4.6c-0.8,0.9-1.5,1.2-2.6,1.2s-1.8-0.3-2.6-1.2c-1.3-1.6-1.3-3-0.1-4.6c0.7-0.9,1.3-1.2,2.7-1.2C129.5,41.4,130,41.7,130.8,42.6z M222,109.6v56.2h-3.7h-3.7v-27.3c0-30.4,0-29.8-3.1-33.4c-0.9-1.1-2.7-2.5-4-3.2l-2.4-1.2h-25.6h-25.6l-2.4,1.4c-2.7,1.5-4.2,3-5.8,5.9c-1,1.9-1,2-1.2,29.9l-0.1,28H89.4H34.1v-56.2V53.4h94h94V109.6z M167.4,107.3c2.2,1.8,1.3,5.5-1.6,6.2c-2.8,0.6-5.2-2.3-4.1-4.9C162.7,106.3,165.4,105.7,167.4,107.3z M186,107.7c1.3,1.2,1.7,2.9,1,4.2c-1.1,1.9-1.8,2.2-7.2,2.2c-4.9,0-5.3,0-6.3-1.2c-0.7-0.7-1.2-1.7-1.2-2.5s0.4-1.8,1.2-2.5c1.1-1.1,1.4-1.2,6.4-1.2C184.4,106.8,185.1,106.9,186,107.7z M206.7,120.2c0.8,0.8,0.8,79.2,0,80c-0.8,0.8-53.4,0.8-54.2,0c-0.8-0.8-0.8-79.2,0-80C153.4,119.5,206,119.5,206.7,120.2z M182.4,204.2c1.8,1,2.8,2.4,2.8,4.5c0,3.7-2.6,6.2-6.1,5.7c-3.3-0.5-5.5-3.8-4.5-7C175.7,204.1,179.2,202.6,182.4,204.2z"/></g></g></g>
</svg>