<?xml version="1.0" standalone="no"?><svg xmlns="http://www.w3.org/2000/svg" viewBox="0 0 1440 320"><path fill="#00cba9" fill-opacity="1" d="M0,96L34.3,117.3C68.6,139,137,181,206,202.7C274.3,224,343,224,411,208C480,192,549,160,617,144C685.7,128,754,128,823,149.3C891.4,171,960,213,1029,245.3C1097.1,277,1166,299,1234,261.3C1302.9,224,1371,128,1406,80L1440,32L1440,0L1405.7,0C1371.4,0,1303,0,1234,0C1165.7,0,1097,0,1029,0C960,0,891,0,823,0C754.3,0,686,0,617,0C548.6,0,480,0,411,0C342.9,0,274,0,206,0C137.1,0,69,0,34,0L0,0Z"></path></svg>